<svg width="414" height="181" viewBox="0 0 414 181" fill="none" xmlns="http://www.w3.org/2000/svg">
<g clip-path="url(#clip0_804_4)">
<path d="M4.3002 123C4.3002 123 1.3002 121.2 0.600195 123.6C-0.0998047 126 -0.0998047 129.6 0.600195 129.9C1.3002 130.2 5.7002 129.9 5.7002 129.9C5.7002 129.9 7.1002 124.4 4.3002 123Z" fill="#E02828"/>
<path d="M77.4001 124.4C77.4001 124.4 70.8001 119.7 69.1001 127.2C69.1001 127.2 70.7001 131.4 71.4001 139C74.2001 139.6 76.9001 140.2 79.6001 141C79.7001 133.9 79.1001 127.5 77.4001 124.4Z" fill="#0B0B0B"/>
<path d="M81.9 170.5L77.8 168.7C77.8 168.7 79.6 153.8 79.6 140.9C76.9 140.2 74.2 139.5 71.4 138.9C72.1 145.6 72.2 154.9 70.2 166.3C70.2 166.3 67.6 173.3 70.5 176.2C73.4 179.1 76 178.1 79.6 179.6C83.2 181.1 89.4 181.4 91.8 177.2C94.4 173.2 89.3 166.1 81.9 170.5Z" fill="#419A25"/>
<path d="M37.1003 119.7C37.1003 119.7 30.5003 114.8 28.8003 122.7C28.8003 122.7 30.8003 128.4 31.4003 138.7C34.0003 138.1 36.6003 137.7 39.3003 137.3C39.4003 129.8 38.9003 122.9 37.1003 119.7Z" fill="#0B0B0B"/>
<path d="M41.6002 168.101L37.5002 166.201C37.5002 166.201 39.3002 150.701 39.3002 137.301C36.6002 137.601 34.0002 138.101 31.4002 138.701C31.8002 145.301 31.6002 153.801 29.9002 163.901C29.9002 163.901 27.3002 171.301 30.2002 174.301C33.1002 177.401 35.7002 176.301 39.3002 177.801C42.9002 179.301 49.1002 179.701 51.5002 175.301C54.1002 170.901 49.0002 163.501 41.6002 168.101Z" fill="#419A25"/>
<path d="M66.5002 45.2004C69.3002 40.1004 70.4002 34.0004 68.2002 28.4004C68.0002 28.0004 67.8002 27.7004 67.6002 27.4004C56.3002 31.3004 39.5002 41.8004 31.2002 69.6004C45.4002 65.9004 58.3002 58.6004 66.5002 45.2004Z" fill="#0B0B0B"/>
<path d="M83.7002 20.5996C83.7002 21.2996 83.8002 21.8996 83.8002 21.8996C83.8002 21.8996 83.8002 21.3996 83.7002 20.5996Z" fill="#419A25"/>
<path d="M88.4001 29.3C88.4001 29.3 94.9001 29.8 94.1001 27.1C93.3001 24.3 90.7001 25.1 90.7001 25.1C90.7001 25.1 97.5001 19.7 93.4001 17.4C89.4001 15 86.8001 22.4 86.8001 22.4C86.8001 22.4 87.1001 19 85.0001 18.9C83.8001 18.8 83.6001 19.9 83.6001 20.8C83.7001 21.6 83.7001 22.1 83.7001 22.1C83.7001 22.1 83.6001 21.5 83.6001 20.8C83.1001 17.4 81.4001 8.29996 76.6001 9.19996C70.7001 10.3 79.4001 23.2 79.4001 23.2C79.4001 23.2 77.6001 21.8 77.0001 23.3C76.4001 24.8 79.1001 25.2 79.1001 25.2C79.1001 25.2 74.3001 25.2 67.6001 27.6C67.8001 27.9 68.0001 28.2 68.2001 28.6C70.4001 34.2 69.3001 40.4 66.5001 45.4C58.3001 58.8 45.4001 66.1 31.2001 69.8C29.7001 74.7 28.5001 80.1 27.7001 86.2C27.7001 86.2 23.5001 120.6 24.5001 122.2C26.5001 125.6 49.5001 129.8 75.2001 128.9C77.6001 128.8 79.7001 127.2 80.5001 124.9L92.8001 93.2C96.9001 82.6 99.2001 71.4 99.4001 60C99.5001 47.5 97.5001 34.1 88.4001 29.3Z" fill="#419A25"/>
<path d="M45.0999 71.3004C44.0999 69.3004 41.7999 67.6004 36.7999 68.4004C29.6999 69.4004 23.8999 79.2004 20.8999 85.6004C30.2999 82.6004 38.9999 78.1004 45.0999 71.3004Z" fill="#419A25"/>
<path d="M23.3001 91.8002C27.2001 84.9002 35.1001 79.7002 43.7001 79.7002C44.4001 79.1002 45.2001 78.0002 45.7001 76.1002C45.7001 76.1002 46.2001 73.5002 45.0001 71.2002C39.0001 78.1002 30.3001 82.6002 20.9001 85.5002C19.4001 88.7002 18.5001 91.1002 18.5001 91.1002C18.5001 91.1002 14.7001 90.7002 13.8001 95.6002C13.8001 95.6002 13.4001 98.1002 14.9001 99.0002C14.9001 99.0002 0.200085 120.4 3.40009 128.9C3.40009 128.9 2.80009 131.5 5.30009 132.4C5.30009 132.4 6.90008 136 9.40008 134.7C9.40008 134.7 7.40008 139.6 10.0001 140.6C12.6001 141.6 15.4001 141.2 16.4001 137C16.7001 135.9 17.2001 132.3 18.1001 127.4C15.7001 115.4 16.6001 102.9 23.3001 91.8002Z" fill="#419A25"/>
<path d="M23.3002 91.8002C16.6002 102.9 15.7002 115.4 18.0002 127.3C20.8002 112.8 27.3002 86.9002 41.9002 80.6002C41.9002 80.6002 42.8002 80.6002 43.7002 79.7002C35.1002 79.8002 27.2002 84.9002 23.3002 91.8002Z" fill="#0B0B0B"/>
<path d="M30.7002 71.4002C30.7002 71.4002 39.6002 64.5002 45.1002 71.3002C45.1002 71.3002 41.5002 66.5002 30.7002 71.4002Z" fill="#0B0B0B"/>
<path d="M76.7002 8.9999C76.7002 8.9999 82.3002 6.59991 83.8002 21.4999C83.8002 21.4999 82.9002 18.3999 85.2002 18.6999C87.5002 18.9999 87.0002 22.1999 87.0002 22.1999C87.0002 22.1999 88.6002 15.3999 93.1002 16.9999C97.6002 18.5999 92.3002 23.8999 90.9002 24.9999C90.9002 24.9999 94.0002 24.4999 94.3002 27.3999C94.3002 27.3999 92.5002 24.5999 90.1002 25.7999C90.1002 25.7999 95.7002 18.9999 92.6002 18.3999C89.5002 17.7999 86.9002 23.6999 86.9002 23.6999C86.9002 23.6999 86.5002 19.5999 85.1002 20.1999C83.8002 20.7999 84.0002 23.5999 84.0002 23.5999C84.0002 23.5999 81.2002 9.5999 76.7002 8.9999Z" fill="#0B0B0B"/>
<path d="M21.9001 128.8C19.2001 125.6 15.2001 125.9 15.2001 125.9C13.7001 130.2 13.9001 133.8 13.9001 133.8C13.9001 133.8 -1.39989 162.4 6.50011 158.2C12.5001 155 19.3001 157.2 22.2001 158.5C22.7001 158.7 23.1001 158.6 23.4001 158.2C18.2001 149 16.7001 138 21.9001 128.8Z" fill="#E02828"/>
<path d="M24.3004 136.8C24.3004 132.9 23.2004 130.5 21.8004 128.8C16.7004 138 18.1004 149 23.3004 158.3C23.5004 158.1 23.6004 157.9 23.6004 157.6C23.9004 154.1 24.4004 145.6 24.3004 136.8Z" fill="#ED3E3E"/>
<path d="M71.9 59.1996C71.1 60.9996 71 62.7996 71.7 63.0996C72.4 63.3996 73.5001 62.0996 74.3001 60.2996C75.1001 58.4996 75.2 56.6996 74.5 56.3996C73.9 56.0996 72.7 57.3996 71.9 59.1996Z" fill="black"/>
<path d="M87.4001 62.9996C86.8001 64.8996 86.8001 66.5996 87.5001 66.8996C88.2001 67.0996 89.3001 65.7996 89.9001 63.8996C90.5001 61.9996 90.5001 60.2996 89.8001 59.9996C89.1001 59.6996 88.0001 61.0996 87.4001 62.9996Z" fill="black"/>
<path d="M83.9001 51.7C83.3001 53.6 83.3001 55.3 84.0001 55.6C84.7001 55.8 85.8001 54.5 86.4001 52.6C87.0001 50.7 87.0001 49 86.3001 48.7C85.6001 48.5 84.5001 49.8 83.9001 51.7Z" fill="black"/>
<path d="M78.8 78.9997C77 77.3997 74.7 76.5997 72.3 76.6997H72.2C68.5 76.9997 67.3 71.2997 72.3 70.0997C77.3 68.8997 83.1 71.5997 84.5 75.5997C85.8 79.2997 82.2 82.0997 78.8 78.9997Z" fill="black"/>
<path d="M82.4002 80.4995C81.7002 82.1995 78.5002 82.4995 75.1002 81.1995C71.7002 79.8995 69.5002 77.3995 70.2002 75.6995C70.9002 73.9995 74.1002 73.6995 77.5002 74.9995C80.9002 76.2995 83.1002 78.7995 82.4002 80.4995Z" fill="#D04642"/>
<path d="M103.1 91.3002C107 74.9002 96.0004 68.2002 96.0004 68.2002L94.8004 71.6002L89.5004 86.8002C87.7004 97.6002 81.1004 92.0002 81.1004 92.0002C80.6004 90.3002 79.9004 92.0002 79.9004 92.0002C79.9004 92.0002 79.9004 85.4002 79.9004 81.1002C79.9004 76.8002 78.8004 75.0002 76.8004 76.1002C74.8004 77.2002 75.4004 86.0002 75.4004 86.0002C74.0004 83.8002 72.8004 86.1002 72.8004 86.1002C72.8004 86.1002 72.4004 85.2002 71.4004 85.3002C70.4004 85.4002 70.3004 86.5002 70.3004 86.5002C70.0004 85.9002 68.6004 84.2002 67.3004 86.5002C66.0004 88.8002 69.5004 101.6 75.3004 105.4C76.4004 106.2 78.1004 106.7 79.9004 107C89.6004 104.8 98.1004 99.7002 103.1 91.3002Z" fill="#419A25"/>
<path d="M80.1001 106.9C86.1001 107.8 94.8001 105.9 99.8001 98.7002C101.2 96.7002 102.3 94.3002 103 91.4002C103 91.3002 103 91.3002 103 91.2002C98.1001 99.7002 89.6001 104.8 80.1001 106.9Z" fill="#0B0B0B"/>
<path d="M90.9 94.1004C90.9 94.1004 85.2 96.0004 80 92.0004C80 92.0004 81.9 75.8004 77.9 75.8004C77.9 75.8004 74.4 75.0004 75.5 85.4004C75.5 85.4004 73.9 84.4004 72.9 86.1004C72.9 86.1004 71.2 84.1004 70.4 86.3004C70.4 86.3004 67.9 84.1004 67.1 86.9004C67.1 86.9004 64 103.4 81.6 107.2C81.6 107.2 67 103.7 67.5 87.3004C67.5 87.3004 67.6 86.3004 68.7 86.3004C69.8 86.2004 70.3 87.5004 70.3 87.5004C70.3 87.5004 70.7 85.9004 71.5 86.1004C72.3 86.3004 72.9 87.4004 72.9 87.4004C72.9 87.4004 73.2 85.6004 74.4 85.9004C75.6 86.2004 75.6 87.6004 75.6 87.6004C75.6 87.6004 75 75.9004 77.6 76.3004C80.3 76.7004 79.5 92.9004 79.5 92.9004C79.5 92.9004 85.7 97.9004 90.9 94.1004Z" fill="#0B0B0B"/>
<path d="M98.4004 71.2998C98.4004 71.2998 96.3004 83.3998 91.4004 94.0998C91.4004 94.0998 98.2004 83.1998 98.4004 71.2998Z" fill="#0B0B0B"/>
<path d="M23.7003 158C23.7003 161.5 19.3003 164.4 14.0003 164.4C8.60029 164.4 4.30029 161.5 4.30029 158C4.30029 154.5 8.70029 151.6 14.0003 151.6C19.4003 151.6 23.7003 154.5 23.7003 158Z" fill="#C91F1F"/>
<path d="M12.3003 158.299V171.499L15.3003 158.699C15.4003 158.199 15.2003 157.799 14.8003 157.499C14.4003 157.299 13.8003 157.099 13.2003 157.199C12.6003 157.299 12.3003 157.799 12.3003 158.299Z" fill="#EAC71B"/>
<path d="M14.9004 169.5C14.9004 170.9 13.8004 172 12.4004 172C11.0004 172 9.90039 170.9 9.90039 169.5C9.90039 168.1 11.0004 167 12.4004 167C13.8004 167.1 14.9004 168.2 14.9004 169.5Z" fill="#EAC71B"/>
<path d="M321.1 54.2008C318.5 52.2008 315.3 50.6008 311.4 50.0008C303.6 48.7008 298.2 51.3008 294.9 54.1008C303.6 55.0008 312.4 55.1008 321.1 54.2008Z" fill="#0B0B0B"/>
<path d="M321.1 54.2006C312.4 55.1006 303.6 54.9006 294.9 54.1006C292 56.6006 290.7 59.1006 290.7 59.1006C290.7 59.1006 283.6 64.0006 283.9 66.1006C284.2 68.2006 285.5 67.5006 285.5 67.5006C285.5 69.6006 286.6 69.2006 286.6 69.2006C286.6 69.2006 285 77.4006 287.2 77.5006C289.4 77.6006 291.1 70.9006 291.1 70.9006C291.1 70.9006 291 72.6006 293.7 72.1006C296.4 71.6006 296.1 65.5006 296.1 65.5006C298.9 57.6006 307.1 58.6006 307.1 58.6006C314.7 59.3006 320.5 66.2006 324.6 73.7006C326.1 69.4006 327.1 64.8006 327.1 60.3006C325.5 58.2006 323.5 56.1006 321.1 54.2006Z" fill="#419A25"/>
<path d="M331.5 68.6008C331.5 68.6008 330.2 64.6008 327 60.3008C327 64.8008 326 69.3008 324.5 73.7008C329.8 83.5008 332.2 94.6008 332.2 94.6008C333.5 78.6008 331.5 68.6008 331.5 68.6008Z" fill="#0B0B0B"/>
<path d="M390 67.2002C390 67.2002 386.8 75.3002 390.7 85.2002C390.7 85.2002 392 85.4002 393.7 86.2002C394.6 80.8002 395.9 75.6002 397.7 70.4002C395.5 69.1002 393 68.0002 390 67.2002Z" fill="#0B0B0B"/>
<path d="M400.9 72.7002C402.9 84.0002 406.2 95.6002 411.7 106.1C412.1 95.5002 410.6 81.0002 400.9 72.7002Z" fill="#0B0B0B"/>
<path d="M400.9 72.7004C399.9 71.9004 398.9 71.1004 397.8 70.4004C396 75.6004 394.7 80.8004 393.8 86.2004C398.5 88.5004 406.7 96.1004 401.9 119.7C401.9 119.7 397 123.4 397 126.3C397 129.2 398.6 130 398.6 130C398.6 130 397.3 132.9 399.9 132.9C402.4 132.9 404.5 133.5 405.2 133.8C405.9 134.1 407.7 133.3 408.7 133.8C409.7 134.3 412 134.3 412.8 133.5C413.6 132.7 413.1 122.1 410.2 118.9C410.2 118.9 411.5 113.4 411.8 105.9C406.2 95.7004 402.9 84.0004 400.9 72.7004Z" fill="#419A25"/>
<path d="M348.3 165.801C348.3 165.801 347.1 163.801 346 165.101C346 165.101 337.6 159.701 333.6 168.701C329.6 177.801 347.5 178.201 351.9 173.901C356.3 169.601 357.7 169.501 357.7 169.501C357.7 169.501 359.5 166.601 357.7 165.401C356.4 164.501 352.8 151.001 352 136.601C349.5 136.901 347.1 137.201 344.6 137.701L348.3 165.801Z" fill="#419A25"/>
<path d="M352.4 121.601C352.4 121.601 344.3 114.501 342.1 118.701L344.6 137.701C347 137.201 349.5 136.901 352 136.601C351.7 131.501 351.8 126.401 352.4 121.601Z" fill="#0B0B0B"/>
<path d="M379.4 161.6C379.4 161.6 380.6 159.6 381.7 160.9C381.7 160.9 390.1 155.5 394.1 164.5C398.1 173.6 380.2 174 375.8 169.7C371.4 165.4 370 165.3 370 165.3C370 165.3 368.2 162.4 370 161.2C371.3 160.3 374.9 146.8 375.7 132.4C378.2 132.7 380.6 133 383.1 133.5L379.4 161.6Z" fill="#419A25"/>
<path d="M375.3 117.401C375.3 117.401 383.4 110.301 385.6 114.501L383.1 133.501C380.7 133.001 378.2 132.7 375.7 132.4C376 127.4 375.9 122.201 375.3 117.401Z" fill="#0B0B0B"/>
<path d="M352.9 17.9004C353 18.2004 353.1 18.3004 353.1 18.3004C353.1 18.3004 353.1 18.2004 352.9 17.9004Z" fill="#419A25"/>
<path d="M385.4 56.8006C387.6 58.1006 389.8 59.3006 392.1 60.4006C390.2 46.4006 386 33.2006 377.3 25.4006C375.7 23.9006 373.9 22.7006 371.9 21.6006C367.6 33.5006 374.6 50.3006 385.4 56.8006Z" fill="#0B0B0B"/>
<path d="M385.4 56.8006C374.6 50.3006 367.7 33.5006 371.9 21.6006C370.4 20.8006 368.7 20.1006 367 19.5006C367 19.5006 380.7 6.40056 372.7 0.900556C364.7 -4.59944 359.8 17.0006 359.8 17.0006C359.8 17.0006 357.3 11.5006 354.4 13.7006C352.2 15.3006 352.6 17.1006 352.9 17.9006C353 18.2006 353.1 18.3006 353.1 18.3006C353.1 18.3006 353 18.1006 352.9 17.9006C351.5 15.2006 343.8 0.900556 337.2 4.90056C329.9 9.30056 347.2 22.3006 347.2 22.3006C347.2 22.3006 342.9 25.4006 338.4 33.5006C331.3 46.5006 323.9 72.1006 333.8 117.901C345.3 120.401 357.4 120.301 369.6 117.601C379.4 115.401 387 109.301 392.3 101.301C393.3 90.6006 394 75.1006 392 60.4006C389.8 59.3006 387.5 58.1006 385.4 56.8006Z" fill="#419A25"/>
<path d="M369.6 117.601C357.5 120.301 345.3 120.401 333.8 117.901C334.1 119.401 334.5 121.001 334.8 122.501C334.8 122.501 342.8 124.101 363.8 122.501C384.8 120.901 390.6 115.001 390.6 115.001C390.6 115.001 391.5 109.601 392.3 101.301C387.1 109.301 379.4 115.401 369.6 117.601Z" fill="#0B0B0B"/>
<path d="M358.9 44.5004C359 46.2004 359.5 47.6004 360.2 47.6004C360.8 47.6004 361.3 46.2004 361.2 44.5004C361.1 42.8004 360.6 41.4004 359.9 41.4004C359.3 41.4004 358.8 42.8004 358.9 44.5004Z" fill="black"/>
<path d="M349.8 56.4008C349.9 58.1008 350.4 59.5008 351.1 59.5008C351.7 59.5008 352.2 58.1008 352.1 56.4008C352 54.7008 351.5 53.3008 350.8 53.3008C350.2 53.3008 349.7 54.7008 349.8 56.4008Z" fill="black"/>
<path d="M369.6 53.3008C369 53.3008 368.5 54.7008 368.6 56.4008C368.7 58.1008 369.2 59.5008 369.9 59.5008C370.5 59.5008 371 58.1008 370.9 56.4008C370.8 54.6008 370.2 53.3008 369.6 53.3008Z" fill="black"/>
<path d="M352.4 68.5005C352.4 68.5005 359.7 63.4005 369.7 67.4005C369.7 67.4005 360.3 61.6005 352.4 68.5005Z" fill="black"/>
<path d="M350.9 67.2002C350.9 67.2002 353.2 67.4002 353 70.4002C353.1 70.4002 352.7 68.3002 350.9 67.2002Z" fill="black"/>
<path d="M369.3 69.6004C369.3 69.6004 369.7 67.6004 371.4 66.4004C371.4 66.4004 369.1 66.6004 369.3 69.6004Z" fill="black"/>
<path d="M357.8 69.6003C357.8 69.6003 361 68.3003 364.6 69.6003C364.6 69.6003 361.1 67.3003 357.8 69.6003Z" fill="black"/>
<path d="M337.2 4.90009C337.2 4.90009 344.2 -0.699906 353.1 18.3001C353.2 18.4001 346.1 5.00009 337.2 4.90009Z" fill="#0B0B0B"/>
<path d="M374.2 9.60045C376.1 6.20045 375.5 -0.999554 369.4 0.100446C363.3 1.20045 359.7 17.0004 359.7 17.0004C357.2 12.5004 355.5 12.3004 353.6 14.4004C351.7 16.5004 353.1 18.4004 353.1 18.4004C353.1 15.8004 355 15.1004 355 15.1004C358.7 14.8004 360.1 21.4004 360.1 21.4004C360.1 21.4004 364.1 3.10045 369.4 1.80045C374.9 0.500446 374.2 9.60045 374.2 9.60045Z" fill="#0B0B0B"/>
<path d="M176.852 122.771H167.014V138H159.736V122.771H127.977V116.482L159.242 71.9648H167.014V116.033H176.852V122.771ZM159.736 116.033V94.5605C159.736 92.9134 159.751 91.431 159.781 90.1133C159.811 88.7656 159.856 87.5228 159.916 86.3848C159.976 85.2168 160.021 84.1087 160.051 83.0605C160.111 82.0124 160.156 80.9792 160.186 79.9609H159.826C159.257 81.1589 158.598 82.4316 157.85 83.7793C157.131 85.097 156.397 86.2799 155.648 87.3281L135.389 116.033H159.736ZM226.58 105.072C226.58 110.403 226.176 115.165 225.367 119.357C224.559 123.55 223.286 127.099 221.549 130.004C219.812 132.909 217.566 135.125 214.811 136.652C212.055 138.15 208.746 138.898 204.883 138.898C200.001 138.898 195.958 137.566 192.754 134.9C189.579 132.235 187.199 128.387 185.611 123.355C184.054 118.294 183.275 112.2 183.275 105.072C183.275 98.0645 183.979 92.0449 185.387 87.0137C186.824 81.9525 189.13 78.0742 192.305 75.3789C195.479 72.6536 199.672 71.291 204.883 71.291C209.824 71.291 213.897 72.6387 217.102 75.334C220.306 77.9993 222.687 81.8626 224.244 86.9238C225.801 91.9551 226.58 98.0046 226.58 105.072ZM190.777 105.072C190.777 111.182 191.242 116.273 192.17 120.346C193.098 124.419 194.596 127.473 196.662 129.51C198.758 131.516 201.499 132.52 204.883 132.52C208.267 132.52 210.992 131.516 213.059 129.51C215.155 127.503 216.667 124.464 217.596 120.391C218.554 116.318 219.033 111.212 219.033 105.072C219.033 99.0527 218.569 94.0215 217.641 89.9785C216.712 85.9056 215.215 82.8509 213.148 80.8145C211.082 78.748 208.327 77.7148 204.883 77.7148C201.439 77.7148 198.684 78.748 196.617 80.8145C194.551 82.8509 193.053 85.9056 192.125 89.9785C191.227 94.0215 190.777 99.0527 190.777 105.072ZM282.148 122.771H272.311V138H265.033V122.771H233.273V116.482L264.539 71.9648H272.311V116.033H282.148V122.771ZM265.033 116.033V94.5605C265.033 92.9134 265.048 91.431 265.078 90.1133C265.108 88.7656 265.153 87.5228 265.213 86.3848C265.273 85.2168 265.318 84.1087 265.348 83.0605C265.408 82.0124 265.452 80.9792 265.482 79.9609H265.123C264.554 81.1589 263.895 82.4316 263.146 83.7793C262.428 85.097 261.694 86.2799 260.945 87.3281L240.686 116.033H265.033Z" fill="#0B0B0B"/>
<path d="M116.094 144.156C119.042 144.156 121.193 144.734 122.547 145.891C123.911 147.036 124.594 148.682 124.594 150.828C124.594 151.797 124.432 152.719 124.109 153.594C123.797 154.458 123.286 155.224 122.578 155.891C121.87 156.547 120.938 157.068 119.781 157.453C118.635 157.828 117.229 158.016 115.562 158.016H112.781V167H110.125V144.156H116.094ZM115.844 146.422H112.781V155.734H115.266C116.724 155.734 117.938 155.578 118.906 155.266C119.885 154.953 120.62 154.448 121.109 153.75C121.599 153.042 121.844 152.104 121.844 150.938C121.844 149.417 121.359 148.286 120.391 147.547C119.422 146.797 117.906 146.422 115.844 146.422ZM135.391 149.594C137.432 149.594 138.948 150.052 139.938 150.969C140.927 151.885 141.422 153.349 141.422 155.359V167H139.531L139.031 164.469H138.906C138.427 165.094 137.927 165.62 137.406 166.047C136.885 166.464 136.281 166.781 135.594 167C134.917 167.208 134.083 167.312 133.094 167.312C132.052 167.312 131.125 167.13 130.312 166.766C129.51 166.401 128.875 165.849 128.406 165.109C127.948 164.37 127.719 163.432 127.719 162.297C127.719 160.589 128.396 159.276 129.75 158.359C131.104 157.443 133.167 156.943 135.938 156.859L138.891 156.734V155.688C138.891 154.208 138.573 153.172 137.938 152.578C137.302 151.984 136.406 151.688 135.25 151.688C134.354 151.688 133.5 151.818 132.688 152.078C131.875 152.339 131.104 152.646 130.375 153L129.578 151.031C130.349 150.635 131.234 150.297 132.234 150.016C133.234 149.734 134.286 149.594 135.391 149.594ZM138.859 158.562L136.25 158.672C134.115 158.755 132.609 159.104 131.734 159.719C130.859 160.333 130.422 161.203 130.422 162.328C130.422 163.307 130.719 164.031 131.312 164.5C131.906 164.969 132.693 165.203 133.672 165.203C135.193 165.203 136.438 164.781 137.406 163.938C138.375 163.094 138.859 161.828 138.859 160.141V158.562ZM151.547 174.688C149.297 174.688 147.562 174.266 146.344 173.422C145.125 172.589 144.516 171.417 144.516 169.906C144.516 168.833 144.854 167.917 145.531 167.156C146.219 166.396 147.167 165.891 148.375 165.641C147.927 165.432 147.542 165.12 147.219 164.703C146.906 164.286 146.75 163.807 146.75 163.266C146.75 162.641 146.922 162.094 147.266 161.625C147.62 161.146 148.156 160.688 148.875 160.25C147.979 159.885 147.25 159.271 146.688 158.406C146.135 157.531 145.859 156.516 145.859 155.359C145.859 154.13 146.115 153.083 146.625 152.219C147.135 151.344 147.875 150.677 148.844 150.219C149.812 149.76 150.984 149.531 152.359 149.531C152.661 149.531 152.964 149.547 153.266 149.578C153.578 149.599 153.875 149.635 154.156 149.688C154.438 149.729 154.682 149.781 154.891 149.844H160.766V151.516L157.609 151.906C157.922 152.312 158.182 152.802 158.391 153.375C158.599 153.948 158.703 154.583 158.703 155.281C158.703 156.99 158.125 158.349 156.969 159.359C155.812 160.359 154.224 160.859 152.203 160.859C151.724 160.859 151.234 160.818 150.734 160.734C150.224 161.016 149.833 161.328 149.562 161.672C149.302 162.016 149.172 162.411 149.172 162.859C149.172 163.193 149.271 163.458 149.469 163.656C149.677 163.854 149.974 164 150.359 164.094C150.745 164.177 151.208 164.219 151.75 164.219H154.766C156.63 164.219 158.057 164.609 159.047 165.391C160.047 166.172 160.547 167.312 160.547 168.812C160.547 170.708 159.776 172.161 158.234 173.172C156.693 174.182 154.464 174.688 151.547 174.688ZM151.625 172.656C153.042 172.656 154.214 172.51 155.141 172.219C156.078 171.938 156.776 171.526 157.234 170.984C157.703 170.453 157.938 169.818 157.938 169.078C157.938 168.391 157.781 167.87 157.469 167.516C157.156 167.172 156.698 166.943 156.094 166.828C155.49 166.703 154.75 166.641 153.875 166.641H150.906C150.135 166.641 149.464 166.76 148.891 167C148.318 167.24 147.875 167.594 147.562 168.062C147.26 168.531 147.109 169.115 147.109 169.812C147.109 170.74 147.5 171.443 148.281 171.922C149.062 172.411 150.177 172.656 151.625 172.656ZM152.297 158.969C153.536 158.969 154.469 158.656 155.094 158.031C155.719 157.406 156.031 156.495 156.031 155.297C156.031 154.016 155.714 153.057 155.078 152.422C154.443 151.776 153.505 151.453 152.266 151.453C151.078 151.453 150.161 151.786 149.516 152.453C148.88 153.109 148.562 154.073 148.562 155.344C148.562 156.51 148.885 157.406 149.531 158.031C150.177 158.656 151.099 158.969 152.297 158.969ZM170.734 149.562C172.193 149.562 173.443 149.885 174.484 150.531C175.526 151.177 176.323 152.083 176.875 153.25C177.427 154.406 177.703 155.76 177.703 157.312V158.922H165.875C165.906 160.932 166.406 162.464 167.375 163.516C168.344 164.568 169.708 165.094 171.469 165.094C172.552 165.094 173.51 164.995 174.344 164.797C175.177 164.599 176.042 164.307 176.938 163.922V166.203C176.073 166.589 175.214 166.87 174.359 167.047C173.516 167.224 172.516 167.312 171.359 167.312C169.714 167.312 168.276 166.979 167.047 166.312C165.828 165.635 164.88 164.646 164.203 163.344C163.526 162.042 163.188 160.448 163.188 158.562C163.188 156.719 163.495 155.125 164.109 153.781C164.734 152.427 165.609 151.385 166.734 150.656C167.87 149.927 169.203 149.562 170.734 149.562ZM170.703 151.688C169.318 151.688 168.214 152.141 167.391 153.047C166.568 153.953 166.078 155.219 165.922 156.844H174.984C174.974 155.823 174.812 154.927 174.5 154.156C174.198 153.375 173.734 152.771 173.109 152.344C172.484 151.906 171.682 151.688 170.703 151.688ZM198.531 149.562C200.562 149.562 202.099 150.062 203.141 151.062C204.182 152.052 204.703 153.646 204.703 155.844V167H202.141V156.016C202.141 154.589 201.812 153.521 201.156 152.812C200.51 152.104 199.516 151.75 198.172 151.75C196.276 151.75 194.943 152.286 194.172 153.359C193.401 154.432 193.016 155.99 193.016 158.031V167H190.422V149.875H192.516L192.906 152.344H193.047C193.411 151.74 193.875 151.234 194.438 150.828C195 150.411 195.63 150.099 196.328 149.891C197.026 149.672 197.76 149.562 198.531 149.562ZM224.812 158.406C224.812 159.812 224.63 161.068 224.266 162.172C223.901 163.276 223.375 164.208 222.688 164.969C222 165.729 221.167 166.312 220.188 166.719C219.219 167.115 218.12 167.312 216.891 167.312C215.745 167.312 214.693 167.115 213.734 166.719C212.786 166.312 211.964 165.729 211.266 164.969C210.578 164.208 210.042 163.276 209.656 162.172C209.281 161.068 209.094 159.812 209.094 158.406C209.094 156.531 209.411 154.938 210.047 153.625C210.682 152.302 211.589 151.297 212.766 150.609C213.953 149.911 215.365 149.562 217 149.562C218.562 149.562 219.927 149.911 221.094 150.609C222.271 151.307 223.182 152.318 223.828 153.641C224.484 154.953 224.812 156.542 224.812 158.406ZM211.781 158.406C211.781 159.781 211.964 160.974 212.328 161.984C212.693 162.995 213.255 163.776 214.016 164.328C214.776 164.88 215.755 165.156 216.953 165.156C218.141 165.156 219.115 164.88 219.875 164.328C220.646 163.776 221.214 162.995 221.578 161.984C221.943 160.974 222.125 159.781 222.125 158.406C222.125 157.042 221.943 155.865 221.578 154.875C221.214 153.875 220.651 153.104 219.891 152.562C219.13 152.021 218.146 151.75 216.938 151.75C215.156 151.75 213.849 152.339 213.016 153.516C212.193 154.693 211.781 156.323 211.781 158.406ZM234.828 165.188C235.255 165.188 235.693 165.151 236.141 165.078C236.589 165.005 236.953 164.917 237.234 164.812V166.828C236.932 166.964 236.51 167.078 235.969 167.172C235.438 167.266 234.917 167.312 234.406 167.312C233.5 167.312 232.677 167.156 231.938 166.844C231.198 166.521 230.604 165.979 230.156 165.219C229.719 164.458 229.5 163.406 229.5 162.062V151.906H227.062V150.641L229.516 149.625L230.547 145.906H232.109V149.875H237.125V151.906H232.109V161.984C232.109 163.057 232.354 163.859 232.844 164.391C233.344 164.922 234.005 165.188 234.828 165.188ZM256.641 151.906H252.375V167H249.781V151.906H246.75V150.656L249.781 149.797V148.656C249.781 147.219 249.995 146.052 250.422 145.156C250.849 144.25 251.469 143.583 252.281 143.156C253.094 142.729 254.083 142.516 255.25 142.516C255.906 142.516 256.505 142.573 257.047 142.688C257.599 142.802 258.083 142.932 258.5 143.078L257.828 145.125C257.474 145.01 257.073 144.906 256.625 144.812C256.188 144.708 255.74 144.656 255.281 144.656C254.292 144.656 253.557 144.979 253.078 145.625C252.609 146.26 252.375 147.26 252.375 148.625V149.875H256.641V151.906ZM274.562 158.406C274.562 159.812 274.38 161.068 274.016 162.172C273.651 163.276 273.125 164.208 272.438 164.969C271.75 165.729 270.917 166.312 269.938 166.719C268.969 167.115 267.87 167.312 266.641 167.312C265.495 167.312 264.443 167.115 263.484 166.719C262.536 166.312 261.714 165.729 261.016 164.969C260.328 164.208 259.792 163.276 259.406 162.172C259.031 161.068 258.844 159.812 258.844 158.406C258.844 156.531 259.161 154.938 259.797 153.625C260.432 152.302 261.339 151.297 262.516 150.609C263.703 149.911 265.115 149.562 266.75 149.562C268.312 149.562 269.677 149.911 270.844 150.609C272.021 151.307 272.932 152.318 273.578 153.641C274.234 154.953 274.562 156.542 274.562 158.406ZM261.531 158.406C261.531 159.781 261.714 160.974 262.078 161.984C262.443 162.995 263.005 163.776 263.766 164.328C264.526 164.88 265.505 165.156 266.703 165.156C267.891 165.156 268.865 164.88 269.625 164.328C270.396 163.776 270.964 162.995 271.328 161.984C271.693 160.974 271.875 159.781 271.875 158.406C271.875 157.042 271.693 155.865 271.328 154.875C270.964 153.875 270.401 153.104 269.641 152.562C268.88 152.021 267.896 151.75 266.688 151.75C264.906 151.75 263.599 152.339 262.766 153.516C261.943 154.693 261.531 156.323 261.531 158.406ZM287.156 149.562C289.188 149.562 290.724 150.062 291.766 151.062C292.807 152.052 293.328 153.646 293.328 155.844V167H290.766V156.016C290.766 154.589 290.438 153.521 289.781 152.812C289.135 152.104 288.141 151.75 286.797 151.75C284.901 151.75 283.568 152.286 282.797 153.359C282.026 154.432 281.641 155.99 281.641 158.031V167H279.047V149.875H281.141L281.531 152.344H281.672C282.036 151.74 282.5 151.234 283.062 150.828C283.625 150.411 284.255 150.099 284.953 149.891C285.651 149.672 286.385 149.562 287.156 149.562ZM304.203 165.188C304.63 165.188 305.068 165.151 305.516 165.078C305.964 165.005 306.328 164.917 306.609 164.812V166.828C306.307 166.964 305.885 167.078 305.344 167.172C304.812 167.266 304.292 167.312 303.781 167.312C302.875 167.312 302.052 167.156 301.312 166.844C300.573 166.521 299.979 165.979 299.531 165.219C299.094 164.458 298.875 163.406 298.875 162.062V151.906H296.438V150.641L298.891 149.625L299.922 145.906H301.484V149.875H306.5V151.906H301.484V161.984C301.484 163.057 301.729 163.859 302.219 164.391C302.719 164.922 303.38 165.188 304.203 165.188Z" fill="#505458"/>
</g>
<defs>
<clipPath id="clip0_804_4">
<rect width="413.1" height="180.7" fill="white"/>
</clipPath>
</defs>
</svg>
